Coordinates
version=1
nRows=14
nColumns=24
inDegrees=yes

Units are S.I. units (second, meters, Newtons, ...)
Angles are in degrees.

endheader
time	pelvis_tilt	pelvis_list	pelvis_rotation	pelvis_tx	pelvis_ty	pelvis_tz	hip_flexion_r	hip_adduction_r	hip_rotation_r	knee_angle_r	ankle_angle_r	subtalar_angle_r	mtp_angle_r	hip_flexion_l	hip_adduction_l	hip_rotation_l	knee_angle_l	ankle_angle_l	subtalar_angle_l	mtp_angle_l	lumbar_extension	lumbar_bending	lumbar_rotation
      1.61466667	      1.76029122	      4.87391934	     -2.03212351	      0.54536495	      1.00594105	      0.26852166	     18.42449124	     -4.95847321	      2.54917528	    -61.52451357	      2.99138943	    -17.94485550	     -1.62987024	      2.60009651	     10.87484917	      0.61033701	     -9.29560909	      2.01270930	    -12.48760717	      0.73754604	     -0.05454958	     -2.61439342	      3.31782352
      1.61883333	      1.82404631	      4.74642061	     -1.87132330	      0.55001339	      1.00633994	      0.26819848	     18.83542460	     -4.81053038	      2.48186339	    -60.86041793	      3.39441071	    -17.99857009	     -1.78466248	      2.05583674	     10.77733498	      0.92774054	     -8.99078153	      2.00010471	    -12.64288834	      0.69893091	     -0.17670258	     -2.47649934	      3.12075014
      1.62300000	      1.85492524	      4.61994444	     -1.71169318	      0.55463483	      1.00664174	      0.26791258	     19.27397411	     -4.65499942	      2.42597031	    -60.16872776	      3.79885053	    -18.05473965	     -1.84489189	      1.58784268	     10.66771250	      1.16159138	     -8.76685540	      2.10427262	    -12.67481849	      0.68648484	     -0.25621441	     -2.34646962	      3.02375732
      1.62716667	      1.96641751	      4.51710507	     -1.57140519	      0.55928659	      1.00702269	      0.26762517	     19.61295704	     -4.53689796	      2.37071477	    -59.44042086	      4.12591334	    -18.12538740	     -1.97607571	      0.98141777	     10.59107911	      1.46777149	     -8.43346717	      2.13461272	    -12.83833069	      0.65607857	     -0.43864735	     -2.23438957	      2.76326827
      1.63133333	      2.03138556	      4.40184968	     -1.40833519	      0.56391997	      1.00732963	      0.26733390	     19.98121357	     -4.40451035	      2.29992807	    -58.66783271	      4.42885042	    -18.18813190	     -2.12195392	      0.44853652	     10.49211158	      1.76383921	     -8.14687009	      2.17437214	    -12.96777516	      0.62366400	     -0.56329902	     -2.11090617	      2.56276531
      1.63550000	      2.10022507	      4.29791723	     -1.25077769	      0.56854022	      1.00757616	      0.26705277	     20.33943610	     -4.28623591	      2.23175558	    -57.87414141	      4.69640428	    -18.24571577	     -2.28310017	     -0.07859908	     10.40023081	      2.03882667	     -7.87614475	      2.22381801	    -13.06910984	      0.58977420	     -0.69370144	     -2.00357211	      2.37161698
      1.63966667	      2.14660758	      4.20686114	     -1.09003760	      0.57314576	      1.00775717	      0.26678488	     20.71309275	     -4.18253063	      2.16192923	    -57.05570290	      4.93683200	    -18.30675655	     -2.44934201	     -0.57486635	     10.31682648	      2.30816041	     -7.61349293	      2.29151883	    -13.16881897	      0.55751537	     -0.79618927	     -1.91239726	      2.17968616
      1.64383333	      2.17973728	      4.11214829	     -0.92637858	      0.57775580	      1.00789371	      0.26651220	     21.08377101	     -4.07641196	      2.08883567	    -56.20256307	      5.13764568	    -18.38301385	     -2.62191112	     -1.04936949	     10.22516149	      2.57077725	     -7.36711113	      2.36771938	    -13.24549136	      0.52595061	     -0.88512009	     -1.81249705	      1.98687452
      1.64800000	      2.19891297	      4.01128598	     -0.75344913	      0.58235099	      1.00798130	      0.26624711	     21.45279222	     -3.96537382	      2.00557030	    -55.31642442	      5.34157933	    -18.43199148	     -2.70712901	     -1.48399802	     10.11873166	      2.79149187	     -7.16801100	      2.46925865	    -13.24292701	      0.51358104	     -0.95452321	     -1.70457565	      1.88494690
      1.65216667	      2.26618178	      3.94019143	     -0.60930324	      0.58695575	      1.00809493	      0.26601918	     21.76576503	     -3.88274657	      1.94589292	    -54.41292385	      5.46501367	    -18.54163875	     -2.89507585	     -2.01066160	     10.04521829	      3.05591064	     -6.88265280	      2.54022726	    -13.34120218	      0.48400122	     -1.09025266	     -1.63783814	      1.61179107
      1.65633333	      2.30566894	      3.86469869	     -0.45094855	      0.59154862	      1.00815076	      0.26578137	     22.09030982	     -3.79946324	      1.87232569	    -53.47823230	      5.59452207	    -18.61826462	     -3.09340778	     -2.48405833	      9.96087425	      3.30128621	     -6.64467248	      2.63283861	    -13.39508624	      0.45486412	     -1.18662218	     -1.56264078	      1.41854797
      1.66050000	      2.29655144	      3.79220874	     -0.28218739	      0.59612688	      1.00809174	      0.26552908	     22.45775480	     -3.72546413	      1.78835795	    -52.52848686	      5.73644852	    -18.65997516	     -3.19503910	     -2.87443694	      9.87474094	      3.51076293	     -6.46805504	      2.75461903	    -13.37813747	      0.44333432	     -1.22432682	     -1.48069494	      1.31560029
      1.66466667	      2.33744187	      3.73270457	     -0.13152690	      0.60070681	      1.00808875	      0.26531545	     22.75625388	     -3.66009089	      1.71896305	    -51.54803907	      5.82778934	    -18.73281292	     -3.32167944	     -3.33944302	      9.79946756	      3.73262468	     -6.24629126	      2.86800183	    -13.38330209	      0.42861736	     -1.32262006	     -1.42049766	      1.12799017
      1.66883333	      2.33644611	      3.66734748	      0.01846626	      0.60529705	      1.00800206	      0.26510813	     23.08806899	     -3.58995874	      1.64176892	    -50.54966893	      5.91387015	    -18.79579424	     -3.43192962	     -3.75300798	      9.71384472	      3.93569463	     -6.03618790	      2.98766053	    -13.37679054	      0.41676130	     -1.38079518	     -1.35894107	      0.96808620
